<svg width="71" height="78" viewBox="0 0 71 78" fill="none" xmlns="http://www.w3.org/2000/svg">
<g filter="url(#filter0_bdi_132_52)">
<path d="M28.1418 16.7738C26.3531 18.5524 24.9913 20.7583 24.1709 23.2063C23.3505 25.6544 23.0953 28.2731 23.4267 30.8428C23.7582 33.4124 24.6666 35.858 26.0758 37.9742C27.1431 39.577 28.4742 40.9555 30.0007 42.0467C30.8697 42.6679 32.0449 42.4872 32.802 41.7336V41.7336C34.0823 40.459 33.548 38.1891 32.1735 37.0166C31.8051 36.7023 31.4566 36.3601 31.131 35.9918C29.9089 34.6092 29.0527 32.9087 28.6487 31.0611C28.2446 29.2134 28.3068 27.2838 28.829 25.466C29.3512 23.6482 30.3151 22.0064 31.6237 20.7054L41.2555 11.1242C43.2339 9.15726 45.8655 8.10105 48.5713 8.18793C51.2771 8.27482 53.8355 9.49768 55.6836 11.5875C57.5318 13.6773 58.5183 16.4629 58.4262 19.3315C58.3341 22.2001 57.1709 24.9167 55.1925 26.8836L51.8398 30.2127C51.3242 30.7246 51.113 31.4641 51.2311 32.181V32.181C51.5539 34.1412 54.1818 35.2871 55.5906 33.8864L58.6743 30.8207C61.6405 27.8716 63.3845 23.7987 63.5226 19.4979C63.6607 15.197 62.1816 11.0206 59.4106 7.88733C56.6397 4.75407 52.804 2.92064 48.7472 2.79037C44.6904 2.66011 40.7449 4.24368 37.7787 7.19273L28.1418 16.7738Z" fill="#131314" stroke="#131314" stroke-width="5"/>
<path d="M18.3627 36.2658C17.3346 34.8608 14.8888 35.4691 13.5881 36.6264L11.3688 38.6009C8.40263 41.5495 6.65865 45.6219 6.52057 49.9222C6.38249 54.2224 7.86161 58.3983 10.6326 61.5312C13.4035 64.664 17.2393 66.4973 21.296 66.6275C25.3528 66.7578 29.2983 65.1744 32.2645 62.2258L41.9016 52.6406C43.6903 50.8623 45.052 48.6567 45.8724 46.209C46.6928 43.7613 46.948 41.1429 46.6165 38.5736C46.2851 36.0042 45.3766 33.559 43.9675 31.4431C42.9594 29.9295 41.7162 28.616 40.2953 27.5557C39.2705 26.7909 37.8693 26.9403 36.8769 27.7467V27.7467V27.7467C35.566 29.0522 36.302 31.1038 37.7311 32.2788C38.1882 32.6547 38.6158 33.0728 39.0086 33.5292C40.2028 34.9172 41.0333 36.6129 41.4182 38.4485C41.8031 40.2842 41.7289 42.1964 41.203 43.996C40.6771 45.7955 39.7177 47.4203 38.4196 48.7095L28.7878 58.2894C26.8094 60.2561 24.1779 61.3121 21.4721 61.2253C18.7663 61.1384 16.2079 59.9157 14.3597 57.8261C12.5116 55.7366 11.525 52.9513 11.6171 50.0831C11.7092 47.2149 12.8724 44.4987 14.8508 42.532L17.276 40.1242C18.3693 39.0388 19.2724 37.5091 18.3627 36.2658V36.2658Z" fill="#131314" stroke="#131314" stroke-width="5"/>
</g>
<defs>
<filter id="filter0_bdi_132_52" x="0.0117188" y="-3.71729" width="70.0198" height="80.8521" filterUnits="userSpaceOnUse" color-interpolation-filters="sRGB">
<feFlood flood-opacity="0" result="BackgroundImageFix"/>
<feGaussianBlur in="BackgroundImageFix" stdDeviation="2"/>
<feComposite in2="SourceAlpha" operator="in" result="effect1_backgroundBlur_132_52"/>
<feColorMatrix in="SourceAlpha" type="matrix" values="0 0 0 0 0 0 0 0 0 0 0 0 0 0 0 0 0 0 127 0" result="hardAlpha"/>
<feOffset dy="4"/>
<feGaussianBlur stdDeviation="2"/>
<feComposite in2="hardAlpha" operator="out"/>
<feColorMatrix type="matrix" values="0 0 0 0 0 0 0 0 0 0 0 0 0 0 0 0 0 0 0.25 0"/>
<feBlend mode="normal" in2="effect1_backgroundBlur_132_52" result="effect2_dropShadow_132_52"/>
<feBlend mode="normal" in="SourceGraphic" in2="effect2_dropShadow_132_52" result="shape"/>
<feColorMatrix in="SourceAlpha" type="matrix" values="0 0 0 0 0 0 0 0 0 0 0 0 0 0 0 0 0 0 127 0" result="hardAlpha"/>
<feOffset dy="4"/>
<feGaussianBlur stdDeviation="2"/>
<feComposite in2="hardAlpha" operator="arithmetic" k2="-1" k3="1"/>
<feColorMatrix type="matrix" values="0 0 0 0 0.882353 0 0 0 0 0.921569 0 0 0 0 1 0 0 0 0.6 0"/>
<feBlend mode="normal" in2="shape" result="effect3_innerShadow_132_52"/>
</filter>
</defs>
</svg>
