<svg width="70" height="77" viewBox="0 0 70 77" fill="none" xmlns="http://www.w3.org/2000/svg">
<g filter="url(#filter0_bdi_132_48)">
<path d="M41.8716 52.3196C43.6586 50.5527 45.0189 48.3611 45.8382 45.9288C46.6575 43.4966 46.912 40.8946 46.5802 38.3412C46.2485 35.7879 45.3403 33.3578 43.9317 31.2548C42.8619 29.6575 41.5273 28.2844 39.9964 27.1985C39.1335 26.5864 37.9706 26.7649 37.2187 27.5091V27.5091C35.9385 28.7763 36.47 31.0425 37.8431 32.2086C38.2097 32.5199 38.5566 32.8589 38.8807 33.2235C40.1022 34.5974 40.958 36.2873 41.3622 38.1233C41.7664 39.9592 41.7046 41.8766 41.1831 43.6826C40.6617 45.4887 39.6989 47.1199 38.3915 48.4123L28.7689 57.9304C26.7924 59.8844 24.163 60.9334 21.4593 60.8465C18.7555 60.7596 16.1988 59.544 14.3516 57.4671C12.5044 55.3902 11.518 52.6222 11.6095 49.7719C11.7009 46.9216 12.8627 44.2226 14.8392 42.2686L18.1848 38.9654C18.702 38.4547 18.9138 37.7145 18.7952 36.9974V36.9974C18.4726 35.0476 15.862 33.9045 14.4567 35.2938L11.3593 38.3559C8.39589 41.2856 6.65405 45.3322 6.51693 49.6056C6.37982 53.879 7.85867 58.0291 10.6282 61.1429C13.3976 64.2568 17.2309 66.0793 21.2846 66.2096C25.3384 66.3399 29.2806 64.7672 32.244 61.8376L41.8716 52.3196Z" fill="#E1EBFF" stroke="#E1EBFF" stroke-width="5"/>
<path d="M51.652 32.9603C52.6831 34.3465 55.1127 33.7491 56.4071 32.6039L58.6351 30.6328C61.5992 27.703 63.3418 23.6566 63.4798 19.3838C63.6178 15.111 62.1398 10.9618 59.3709 7.84895C56.602 4.7361 52.7691 2.91461 48.7153 2.78518C44.6615 2.65575 40.719 4.22898 37.7549 7.15878L28.125 16.6827C26.3377 18.4497 24.977 20.6412 24.1571 23.0733C23.3373 25.5054 23.0823 28.107 23.4135 30.6599C23.7448 33.2128 24.6525 35.6424 26.0607 37.7448C27.0683 39.2493 28.3111 40.5548 29.7317 41.6086C30.7562 42.3686 32.1533 42.2196 33.146 41.4176V41.4176V41.4176C34.4532 40.1232 33.7236 38.0827 32.299 36.9198C31.8397 36.5449 31.4102 36.1278 31.0159 35.672C29.8226 34.2929 28.9926 32.6081 28.608 30.7841C28.2234 28.9602 28.2976 27.0603 28.8231 25.2722C29.3486 23.4841 30.3073 21.8697 31.6044 20.5887L41.2291 11.07C43.206 9.1159 45.8356 8.06659 48.5394 8.15292C51.2432 8.23925 53.7997 9.45415 55.6465 11.5304C57.4933 13.6066 58.4791 16.374 58.3871 19.2239C58.295 22.0738 57.1327 24.7726 55.1558 26.7267L52.7421 29.1095C51.6442 30.1933 50.7315 31.723 51.652 32.9603V32.9603Z" fill="#E1EBFF" stroke="#E1EBFF" stroke-width="5"/>
</g>
<defs>
<filter id="filter0_bdi_132_48" x="0.00830078" y="-3.72217" width="69.9805" height="80.4395" filterUnits="userSpaceOnUse" color-interpolation-filters="sRGB">
<feFlood flood-opacity="0" result="BackgroundImageFix"/>
<feGaussianBlur in="BackgroundImageFix" stdDeviation="2"/>
<feComposite in2="SourceAlpha" operator="in" result="effect1_backgroundBlur_132_48"/>
<feColorMatrix in="SourceAlpha" type="matrix" values="0 0 0 0 0 0 0 0 0 0 0 0 0 0 0 0 0 0 127 0" result="hardAlpha"/>
<feOffset dy="4"/>
<feGaussianBlur stdDeviation="2"/>
<feComposite in2="hardAlpha" operator="out"/>
<feColorMatrix type="matrix" values="0 0 0 0 0 0 0 0 0 0 0 0 0 0 0 0 0 0 0.25 0"/>
<feBlend mode="normal" in2="effect1_backgroundBlur_132_48" result="effect2_dropShadow_132_48"/>
<feBlend mode="normal" in="SourceGraphic" in2="effect2_dropShadow_132_48" result="shape"/>
<feColorMatrix in="SourceAlpha" type="matrix" values="0 0 0 0 0 0 0 0 0 0 0 0 0 0 0 0 0 0 127 0" result="hardAlpha"/>
<feOffset dy="4"/>
<feGaussianBlur stdDeviation="2"/>
<feComposite in2="hardAlpha" operator="arithmetic" k2="-1" k3="1"/>
<feColorMatrix type="matrix" values="0 0 0 0 0 0 0 0 0 0 0 0 0 0 0 0 0 0 0.6 0"/>
<feBlend mode="normal" in2="shape" result="effect3_innerShadow_132_48"/>
</filter>
</defs>
</svg>
