<svg width="31" height="30" viewBox="0 0 31 30" fill="none" xmlns="http://www.w3.org/2000/svg">
<path d="M12.1629 16.5141C12.8025 17.0174 13.5429 17.3773 14.3339 17.5693C15.1249 17.7613 15.948 17.781 16.7474 17.627C17.5467 17.473 18.3037 17.1489 18.9668 16.6767C19.63 16.2046 20.1839 15.5954 20.5909 14.8904L23.0003 10.7194C23.7224 9.41775 23.9043 7.8848 23.5069 6.45069C23.1094 5.01659 22.1645 3.79608 20.8756 3.05204C19.5867 2.308 18.0569 2.09997 16.6157 2.47274C15.1746 2.84551 13.9373 3.76926 13.1705 5.04504L11.7862 7.42546" stroke="white" stroke-width="2.6" stroke-linecap="round" stroke-linejoin="round"/>
<path d="M15.9627 13.1457C15.3231 12.6424 14.5827 12.2825 13.7917 12.0905C13.0007 11.8985 12.1776 11.8788 11.3783 12.0328C10.5789 12.1868 9.82195 12.5109 9.15878 12.9831C8.49561 13.4552 7.94171 14.0644 7.53467 14.7694L5.12527 18.9404C4.40325 20.242 4.22135 21.775 4.61877 23.2091C5.01618 24.6432 5.96111 25.8637 7.25003 26.6078C8.53895 27.3518 10.0687 27.5598 11.5099 27.1871C12.9511 26.8143 14.1883 25.8905 14.9551 24.6148L16.3285 22.2373" stroke="white" stroke-width="2.6" stroke-linecap="round" stroke-linejoin="round"/>
</svg>
