<svg width="13" height="13" viewBox="0 0 13 13" fill="none" xmlns="http://www.w3.org/2000/svg">
<g clip-path="url(#clip0_9_7)">
<path d="M5.78687 7.15588C6.03739 7.33929 6.32443 7.46669 6.62852 7.52942C6.93261 7.59214 7.24663 7.58874 7.54928 7.51944C7.85194 7.45013 8.13615 7.31655 8.38264 7.12774C8.62913 6.93894 8.83213 6.69933 8.97788 6.42518L9.8406 4.80303C10.0984 4.29721 10.1473 3.71035 9.97665 3.16885C9.80601 2.62736 9.4295 2.17455 8.92824 1.90795C8.42697 1.64136 7.84105 1.58231 7.29667 1.74352C6.75229 1.90474 6.29301 2.27331 6.01774 2.76987L5.52185 3.69576" stroke="#020817" stroke-width="1.1" stroke-linecap="round" stroke-linejoin="round"/>
<path d="M7.19031 5.82131C6.93979 5.63789 6.65275 5.5105 6.34866 5.44777C6.04457 5.38504 5.73055 5.38845 5.4279 5.45775C5.12524 5.52705 4.84103 5.66064 4.59454 5.84944C4.34805 6.03825 4.14505 6.27785 3.9993 6.55201L3.13658 8.17416C2.87874 8.67998 2.82988 9.26684 3.00053 9.80834C3.17118 10.3498 3.54768 10.8026 4.04895 11.0692C4.55021 11.3358 5.13613 11.3949 5.68051 11.2337C6.22489 11.0725 6.68417 10.7039 6.95944 10.2073L7.45119 9.28269" stroke="#020817" stroke-width="1.1" stroke-linecap="round" stroke-linejoin="round"/>
</g>
<defs>
<clipPath id="clip0_9_7">
<rect width="10.3933" height="10.3933" fill="white" transform="translate(0 3.03769) rotate(-16.9941)"/>
</clipPath>
</defs>
</svg>
