<svg width="108" height="36" viewBox="0 0 108 36" fill="none" xmlns="http://www.w3.org/2000/svg">
<path d="M31.24 28V7H34.66V24.85H42.94V28H31.24ZM46.1448 9.52C45.0048 9.52 44.0448 8.56 44.0448 7.42C44.0448 6.28 45.0048 5.32 46.1448 5.32C47.2848 5.32 48.2448 6.28 48.2448 7.42C48.2448 8.56 47.2848 9.52 46.1448 9.52ZM44.5848 28V12.88H47.6748V28H44.5848ZM49.7294 28V12.88H52.8194V14.35C53.9594 13.15 55.4594 12.28 57.6194 12.28C60.9494 12.28 63.4994 14.53 63.4994 18.91V28H60.3794V19.03C60.3794 16.63 59.0594 15.19 56.8994 15.19C54.8294 15.19 53.5994 16.48 52.8194 17.8V28H49.7294ZM65.3636 28V5.5H68.4836V19.42L74.9036 12.88H78.8336L72.5636 19.24L78.8936 28H75.0536L70.3436 21.46L68.4836 23.35V28H65.3636ZM79.5993 12.88H82.4493V11.14C82.4493 7.93 84.5493 5.5 88.0593 5.5C89.4393 5.5 90.5793 5.86 91.4493 6.34L90.1293 8.95C89.6193 8.56 88.9593 8.29 88.1193 8.29C86.5893 8.29 85.5693 9.34 85.5693 11.05V12.88H90.5793V15.67H85.5693V28H82.4493V15.67H79.5993V12.88ZM99.4954 31.57C98.4454 34.09 96.7054 35.5 94.0054 35.5C92.9254 35.5 92.1454 35.32 91.4554 35.02V32.26C91.9954 32.5 92.6854 32.65 93.3754 32.65C94.9054 32.65 95.9854 32.11 96.7054 30.4L97.7254 27.97L91.2754 12.88H94.6954L99.3754 24.01L103.995 12.88H107.295L99.4954 31.57Z" fill="#020817"/>
<g clip-path="url(#clip0_9_11)">
<path d="M12.4767 18.2411C13.0172 18.6366 13.6366 18.9113 14.2927 19.0465C14.9489 19.1817 15.6265 19.1742 16.2795 19.0246C16.9326 18.8751 17.546 18.5868 18.0779 18.1795C18.6098 17.7722 19.0479 17.2554 19.3625 16.664L21.2246 13.165C21.7812 12.0739 21.8868 10.8082 21.5187 9.64028C21.1507 8.4724 20.3384 7.49588 19.2568 6.92103C18.1753 6.34619 16.911 6.21902 15.7363 6.5669C14.5616 6.91479 13.5704 7.70991 12.9763 8.781L11.906 10.7782" stroke="#020817" stroke-width="2.6" stroke-linecap="round" stroke-linejoin="round"/>
<path d="M15.5055 15.3621C14.965 14.9666 14.3456 14.6919 13.6895 14.5567C13.0334 14.4215 12.3558 14.429 11.7027 14.5785C11.0496 14.7281 10.4363 15.0163 9.90433 15.4236C9.37239 15.8309 8.93428 16.3478 8.6197 16.9392L6.75759 20.4382C6.20106 21.5292 6.09544 22.795 6.4635 23.9629C6.83155 25.1308 7.64383 26.1073 8.72537 26.6821C9.80692 27.257 11.0712 27.3842 12.2459 27.0363C13.4206 26.6884 14.4118 25.8933 15.0059 24.8222L16.0673 22.8277" stroke="#020817" stroke-width="2.6" stroke-linecap="round" stroke-linejoin="round"/>
</g>
<defs>
<clipPath id="clip0_9_11">
<rect width="22.4278" height="22.4159" fill="white" transform="translate(0 8.55502) rotate(-16.9941)"/>
</clipPath>
</defs>
</svg>
