<svg width="45" height="15" viewBox="0 0 45 15" fill="none" xmlns="http://www.w3.org/2000/svg">
<path d="M14.296 12V3.6H15.664V10.74H18.976V12H14.296ZM20.2579 4.608C19.8019 4.608 19.4179 4.224 19.4179 3.768C19.4179 3.312 19.8019 2.928 20.2579 2.928C20.7139 2.928 21.0979 3.312 21.0979 3.768C21.0979 4.224 20.7139 4.608 20.2579 4.608ZM19.6339 12V5.952H20.8699V12H19.6339ZM21.6918 12V5.952H22.9278V6.54C23.3838 6.06 23.9838 5.712 24.8478 5.712C26.1798 5.712 27.1998 6.612 27.1998 8.364V12H25.9518V8.412C25.9518 7.452 25.4238 6.876 24.5598 6.876C23.7318 6.876 23.2398 7.392 22.9278 7.92V12H21.6918ZM27.9454 12V3H29.1934V8.568L31.7614 5.952H33.3334L30.8254 8.496L33.3574 12H31.8214L29.9374 9.384L29.1934 10.14V12H27.9454ZM33.6397 5.952H34.7797V5.256C34.7797 3.972 35.6197 3 37.0237 3C37.5757 3 38.0317 3.144 38.3797 3.336L37.8517 4.38C37.6477 4.224 37.3837 4.116 37.0477 4.116C36.4357 4.116 36.0277 4.536 36.0277 5.22V5.952H38.0317V7.068H36.0277V12H34.7797V7.068H33.6397V5.952ZM41.5982 13.428C41.1782 14.436 40.4822 15 39.4022 15C38.9702 15 38.6582 14.928 38.3822 14.808V13.704C38.5982 13.8 38.8742 13.86 39.1502 13.86C39.7622 13.86 40.1942 13.644 40.4822 12.96L40.8902 11.988L38.3102 5.952H39.6782L41.5502 10.404L43.3982 5.952H44.7182L41.5982 13.428Z" fill="#020817"/>
<g clip-path="url(#clip0_9_2)">
<path d="M5.78687 8.15588C6.03739 8.33929 6.32443 8.46669 6.62852 8.52942C6.93261 8.59214 7.24663 8.58874 7.54928 8.51944C7.85194 8.45013 8.13615 8.31655 8.38264 8.12774C8.62913 7.93894 8.83213 7.69933 8.97788 7.42518L9.8406 5.80303C10.0984 5.29721 10.1473 4.71035 9.97665 4.16885C9.80601 3.62736 9.4295 3.17455 8.92824 2.90795C8.42697 2.64136 7.84105 2.58231 7.29667 2.74352C6.75229 2.90474 6.29301 3.27331 6.01774 3.76987L5.52185 4.69576" stroke="#020817" stroke-width="1.1" stroke-linecap="round" stroke-linejoin="round"/>
<path d="M7.19031 6.82131C6.93979 6.63789 6.65275 6.5105 6.34866 6.44777C6.04457 6.38504 5.73055 6.38845 5.4279 6.45775C5.12524 6.52705 4.84103 6.66064 4.59454 6.84944C4.34805 7.03825 4.14505 7.27785 3.9993 7.55201L3.13658 9.17416C2.87874 9.67998 2.82988 10.2668 3.00053 10.8083C3.17118 11.3498 3.54768 11.8026 4.04895 12.0692C4.55021 12.3358 5.13613 12.3949 5.68051 12.2337C6.22489 12.0725 6.68417 11.7039 6.95944 11.2073L7.45119 10.2827" stroke="#020817" stroke-width="1.1" stroke-linecap="round" stroke-linejoin="round"/>
</g>
<defs>
<clipPath id="clip0_9_2">
<rect width="10.3933" height="10.3933" fill="white" transform="translate(0 4.03769) rotate(-16.9941)"/>
</clipPath>
</defs>
</svg>
