<svg width="87" height="94" viewBox="0 0 87 94" fill="none" xmlns="http://www.w3.org/2000/svg">
<g filter="url(#filter0_bdi_564_50)">
<g filter="url(#filter1_d_564_50)">
<path d="M34.1418 24.7738C32.3531 26.5524 30.9913 28.7583 30.1709 31.2063C29.3505 33.6544 29.0953 36.2731 29.4267 38.8428C29.7582 41.4124 30.6666 43.858 32.0758 45.9742C33.1431 47.577 34.4742 48.9555 36.0007 50.0467C36.8697 50.6679 38.0449 50.4872 38.802 49.7336V49.7336C40.0823 48.459 39.548 46.1891 38.1735 45.0166C37.8051 44.7023 37.4566 44.3601 37.131 43.9918C35.9089 42.6092 35.0527 40.9087 34.6487 39.0611C34.2446 37.2134 34.3068 35.2838 34.829 33.466C35.3512 31.6482 36.3151 30.0064 37.6237 28.7054L47.2555 19.1242C49.2339 17.1573 51.8655 16.1011 54.5713 16.1879C57.2771 16.2748 59.8355 17.4977 61.6836 19.5875C63.5318 21.6773 64.5183 24.4629 64.4262 27.3315C64.3341 30.2001 63.1709 32.9167 61.1925 34.8836L57.8398 38.2127C57.3242 38.7246 57.113 39.4641 57.2311 40.181V40.181C57.5539 42.1412 60.1818 43.2871 61.5906 41.8864L64.6743 38.8207C67.6405 35.8716 69.3845 31.7987 69.5226 27.4979C69.6607 23.197 68.1816 19.0206 65.4106 15.8873C62.6397 12.7541 58.804 10.9206 54.7472 10.7904C50.6904 10.6601 46.7449 12.2437 43.7787 15.1927L34.1418 24.7738Z" fill="#E1EBFF"/>
<path d="M34.1418 24.7738C32.3531 26.5524 30.9913 28.7583 30.1709 31.2063C29.3505 33.6544 29.0953 36.2731 29.4267 38.8428C29.7582 41.4124 30.6666 43.858 32.0758 45.9742C33.1431 47.577 34.4742 48.9555 36.0007 50.0467C36.8697 50.6679 38.0449 50.4872 38.802 49.7336V49.7336C40.0823 48.459 39.548 46.1891 38.1735 45.0166C37.8051 44.7023 37.4566 44.3601 37.131 43.9918C35.9089 42.6092 35.0527 40.9087 34.6487 39.0611C34.2446 37.2134 34.3068 35.2838 34.829 33.466C35.3512 31.6482 36.3151 30.0064 37.6237 28.7054L47.2555 19.1242C49.2339 17.1573 51.8655 16.1011 54.5713 16.1879C57.2771 16.2748 59.8355 17.4977 61.6836 19.5875C63.5318 21.6773 64.5183 24.4629 64.4262 27.3315C64.3341 30.2001 63.1709 32.9167 61.1925 34.8836L57.8398 38.2127C57.3242 38.7246 57.113 39.4641 57.2311 40.181V40.181C57.5539 42.1412 60.1818 43.2871 61.5906 41.8864L64.6743 38.8207C67.6405 35.8716 69.3845 31.7987 69.5226 27.4979C69.6607 23.197 68.1816 19.0206 65.4106 15.8873C62.6397 12.7541 58.804 10.9206 54.7472 10.7904C50.6904 10.6601 46.7449 12.2437 43.7787 15.1927L34.1418 24.7738Z" stroke="#E1EBFF" stroke-width="5"/>
</g>
<g filter="url(#filter2_d_564_50)">
<path d="M24.3627 44.2658C23.3346 42.8608 20.8888 43.4691 19.5881 44.6264L17.3688 46.6009C14.4026 49.5495 12.6587 53.6219 12.5206 57.9222C12.3825 62.2224 13.8616 66.3983 16.6326 69.5312C19.4035 72.664 23.2393 74.4973 27.296 74.6275C31.3528 74.7578 35.2983 73.1744 38.2645 70.2258L47.9016 60.6406C49.6903 58.8623 51.052 56.6567 51.8724 54.209C52.6928 51.7613 52.948 49.1429 52.6165 46.5736C52.2851 44.0042 51.3766 41.559 49.9675 39.4431C48.9749 37.9527 47.7542 36.6563 46.3604 35.6045C45.3264 34.8243 43.8955 35.064 43 36V36V36C41.7287 37.266 42.2488 39.0855 43.6467 40.2102C44.1356 40.6036 44.5917 41.0448 45.0086 41.5292C46.2028 42.9172 47.0333 44.6129 47.4182 46.4485C47.8031 48.2842 47.7289 50.1964 47.203 51.996C46.6771 53.7955 45.7177 55.4203 44.4196 56.7095L34.7878 66.2894C32.8094 68.2561 30.1779 69.3121 27.4721 69.2253C24.7663 69.1384 22.2079 67.9157 20.3597 65.8261C18.5116 63.7366 17.525 60.9513 17.6171 58.0831C17.7092 55.2149 18.8724 52.4987 20.8508 50.532L23.276 48.1242C24.3693 47.0388 25.2724 45.5091 24.3627 44.2658V44.2658Z" fill="#E1EBFF"/>
<path d="M24.3627 44.2658C23.3346 42.8608 20.8888 43.4691 19.5881 44.6264L17.3688 46.6009C14.4026 49.5495 12.6587 53.6219 12.5206 57.9222C12.3825 62.2224 13.8616 66.3983 16.6326 69.5312C19.4035 72.664 23.2393 74.4973 27.296 74.6275C31.3528 74.7578 35.2983 73.1744 38.2645 70.2258L47.9016 60.6406C49.6903 58.8623 51.052 56.6567 51.8724 54.209C52.6928 51.7613 52.948 49.1429 52.6165 46.5736C52.2851 44.0042 51.3766 41.559 49.9675 39.4431C48.9749 37.9527 47.7542 36.6563 46.3604 35.6045C45.3264 34.8243 43.8955 35.064 43 36V36V36C41.7287 37.266 42.2488 39.0855 43.6467 40.2102C44.1356 40.6036 44.5917 41.0448 45.0086 41.5292C46.2028 42.9172 47.0333 44.6129 47.4182 46.4485C47.8031 48.2842 47.7289 50.1964 47.203 51.996C46.6771 53.7955 45.7177 55.4203 44.4196 56.7095L34.7878 66.2894C32.8094 68.2561 30.1779 69.3121 27.4721 69.2253C24.7663 69.1384 22.2079 67.9157 20.3597 65.8261C18.5116 63.7366 17.525 60.9513 17.6171 58.0831C17.7092 55.2149 18.8724 52.4987 20.8508 50.532L23.276 48.1242C24.3693 47.0388 25.2724 45.5091 24.3627 44.2658V44.2658Z" stroke="#E1EBFF" stroke-width="5"/>
</g>
</g>
<defs>
<filter id="filter0_bdi_564_50" x="6.01172" y="4.28271" width="70.0198" height="80.8521" filterUnits="userSpaceOnUse" color-interpolation-filters="sRGB">
<feFlood flood-opacity="0" result="BackgroundImageFix"/>
<feGaussianBlur in="BackgroundImageFix" stdDeviation="2"/>
<feComposite in2="SourceAlpha" operator="in" result="effect1_backgroundBlur_564_50"/>
<feColorMatrix in="SourceAlpha" type="matrix" values="0 0 0 0 0 0 0 0 0 0 0 0 0 0 0 0 0 0 127 0" result="hardAlpha"/>
<feOffset dy="4"/>
<feGaussianBlur stdDeviation="2"/>
<feComposite in2="hardAlpha" operator="out"/>
<feColorMatrix type="matrix" values="0 0 0 0 0 0 0 0 0 0 0 0 0 0 0 0 0 0 0.25 0"/>
<feBlend mode="normal" in2="effect1_backgroundBlur_564_50" result="effect2_dropShadow_564_50"/>
<feBlend mode="normal" in="SourceGraphic" in2="effect2_dropShadow_564_50" result="shape"/>
<feColorMatrix in="SourceAlpha" type="matrix" values="0 0 0 0 0 0 0 0 0 0 0 0 0 0 0 0 0 0 127 0" result="hardAlpha"/>
<feOffset dy="4"/>
<feGaussianBlur stdDeviation="2"/>
<feComposite in2="hardAlpha" operator="arithmetic" k2="-1" k3="1"/>
<feColorMatrix type="matrix" values="0 0 0 0 0 0 0 0 0 0 0 0 0 0 0 0 0 0 0.6 0"/>
<feBlend mode="normal" in2="shape" result="effect3_innerShadow_564_50"/>
</filter>
<filter id="filter1_d_564_50" x="16.7859" y="0.282715" width="69.2456" height="68.6426" filterUnits="userSpaceOnUse" color-interpolation-filters="sRGB">
<feFlood flood-opacity="0" result="BackgroundImageFix"/>
<feColorMatrix in="SourceAlpha" type="matrix" values="0 0 0 0 0 0 0 0 0 0 0 0 0 0 0 0 0 0 127 0" result="hardAlpha"/>
<feOffset dx="2" dy="4"/>
<feGaussianBlur stdDeviation="6"/>
<feComposite in2="hardAlpha" operator="out"/>
<feColorMatrix type="matrix" values="0 0 0 0 0.368437 0 0 0 0 0.427571 0 0 0 0 0.545833 0 0 0 1 0"/>
<feBlend mode="normal" in2="BackgroundImageFix" result="effect1_dropShadow_564_50"/>
<feBlend mode="normal" in="SourceGraphic" in2="effect1_dropShadow_564_50" result="shape"/>
</filter>
<filter id="filter2_d_564_50" x="0.0117188" y="24.6328" width="69.2458" height="68.502" filterUnits="userSpaceOnUse" color-interpolation-filters="sRGB">
<feFlood flood-opacity="0" result="BackgroundImageFix"/>
<feColorMatrix in="SourceAlpha" type="matrix" values="0 0 0 0 0 0 0 0 0 0 0 0 0 0 0 0 0 0 127 0" result="hardAlpha"/>
<feOffset dx="2" dy="4"/>
<feGaussianBlur stdDeviation="6"/>
<feComposite in2="hardAlpha" operator="out"/>
<feColorMatrix type="matrix" values="0 0 0 0 0.368437 0 0 0 0 0.427571 0 0 0 0 0.545833 0 0 0 1 0"/>
<feBlend mode="normal" in2="BackgroundImageFix" result="effect1_dropShadow_564_50"/>
<feBlend mode="normal" in="SourceGraphic" in2="effect1_dropShadow_564_50" result="shape"/>
</filter>
</defs>
</svg>
