<svg width="268" height="89" viewBox="0 0 268 89" fill="none" xmlns="http://www.w3.org/2000/svg">
<g filter="url(#filter0_bdi_564_87)">
<path d="M41.8716 61.3196C43.6586 59.5527 45.0189 57.3611 45.8382 54.9288C46.6575 52.4966 46.912 49.8946 46.5802 47.3412C46.2485 44.7879 45.3403 42.3578 43.9317 40.2548C42.8619 38.6575 41.5273 37.2844 39.9964 36.1985C39.1335 35.5864 37.9706 35.7649 37.2187 36.5091V36.5091C35.9385 37.7763 36.47 40.0425 37.8431 41.2086C38.2097 41.5199 38.5566 41.8589 38.8807 42.2235C40.1022 43.5974 40.958 45.2873 41.3622 47.1233C41.7664 48.9592 41.7046 50.8766 41.1831 52.6826C40.6617 54.4887 39.6989 56.1199 38.3915 57.4123L28.7689 66.9304C26.7924 68.8844 24.163 69.9334 21.4593 69.8465C18.7555 69.7596 16.1988 68.544 14.3516 66.4671C12.5044 64.3902 11.518 61.6222 11.6095 58.7719C11.7009 55.9216 12.8627 53.2226 14.8392 51.2686L18.1848 47.9654C18.702 47.4547 18.9138 46.7145 18.7952 45.9974V45.9974C18.4726 44.0476 15.862 42.9045 14.4567 44.2938L11.3593 47.3559C8.39589 50.2856 6.65405 54.3322 6.51693 58.6056C6.37982 62.879 7.85867 67.0291 10.6282 70.1429C13.3976 73.2568 17.2309 75.0793 21.2846 75.2096C25.3384 75.3399 29.2806 73.7672 32.244 70.8376L41.8716 61.3196Z" fill="#E1EBFF" stroke="#E1EBFF" stroke-width="5"/>
<path d="M51.652 41.9603C52.6831 43.3465 55.1127 42.7491 56.4071 41.6039L58.6351 39.6328C61.5992 36.703 63.3418 32.6566 63.4798 28.3838C63.6178 24.111 62.1398 19.9618 59.3709 16.8489C56.602 13.7361 52.7691 11.9146 48.7153 11.7852C44.6615 11.6557 40.719 13.229 37.7549 16.1588L28.125 25.6827C26.3377 27.4497 24.977 29.6412 24.1571 32.0733C23.3373 34.5054 23.0823 37.107 23.4135 39.6599C23.7448 42.2128 24.6525 44.6424 26.0607 46.7448C27.1943 48.4374 28.6255 49.8781 30.2726 50.9919C31.0327 51.5059 32 51.5586 32.8601 51.2383L32.9655 51.199C33.3178 51.0678 33.4984 51.0405 33.7008 50.7238V50.7238C34.6115 49.2984 33.8645 47.1307 32.5249 46.0989C31.98 45.6792 31.4742 45.2017 31.0159 44.672C29.8226 43.2929 28.9926 41.6081 28.608 39.7841C28.2234 37.9602 28.2976 36.0603 28.8231 34.2722C29.3486 32.4841 30.3073 30.8697 31.6044 29.5887L41.2291 20.07C43.206 18.1159 45.8356 17.0666 48.5394 17.1529C51.2432 17.2392 53.7997 18.4541 55.6465 20.5304C57.4933 22.6066 58.4791 25.374 58.3871 28.2239C58.295 31.0738 57.1327 33.7726 55.1558 35.7267L52.7421 38.1095C51.6442 39.1933 50.7315 40.723 51.652 41.9603V41.9603Z" fill="#E1EBFF" stroke="#E1EBFF" stroke-width="5"/>
</g>
<g filter="url(#filter1_i_564_87)">
<path d="M85.21 71V22H95.15V61.97H113.77V71H85.21ZM121.848 29.56C118.698 29.56 116.038 26.9 116.038 23.75C116.038 20.6 118.698 17.94 121.848 17.94C124.998 17.94 127.588 20.6 127.588 23.75C127.588 26.9 124.998 29.56 121.848 29.56ZM117.368 71V35.72H126.258V71H117.368ZM129.919 71V35.72H138.809V38.52C141.259 36.14 144.549 34.32 149.239 34.32C156.869 34.32 162.959 39.57 162.959 50V71H153.999V50.35C153.999 45.66 151.339 42.72 146.999 42.72C142.519 42.72 140.139 45.73 138.809 47.97V71H129.919ZM166.194 71V18.5H175.154V49.23L188.104 35.72H199.234L184.744 50.7L199.164 71H188.244L178.444 57.14L175.154 60.5V71H166.194ZM200.304 35.72H206.884V32.01C206.884 24.52 211.854 18.5 220.674 18.5C223.894 18.5 226.624 19.27 228.864 20.46L225.084 27.88C224.034 27.11 222.634 26.48 220.814 26.48C217.804 26.48 215.844 28.58 215.844 31.8V35.72H226.624V43.7H215.844V71H206.884V43.7H200.304V35.72ZM249.09 79.05C246.64 84.86 242.65 88.5 235.93 88.5C233.2 88.5 231.31 88.08 229.63 87.38V79.54C230.75 80.03 232.43 80.38 233.97 80.38C237.47 80.38 239.64 79.19 241.11 75.62L243.07 70.93L228.23 35.72H238.1L247.76 59.45L257.49 35.72H266.87L249.09 79.05Z" fill="#E1EBFF"/>
</g>
<defs>
<filter id="filter0_bdi_564_87" x="0.00830078" y="5.27783" width="69.9805" height="80.4395" filterUnits="userSpaceOnUse" color-interpolation-filters="sRGB">
<feFlood flood-opacity="0" result="BackgroundImageFix"/>
<feGaussianBlur in="BackgroundImageFix" stdDeviation="2"/>
<feComposite in2="SourceAlpha" operator="in" result="effect1_backgroundBlur_564_87"/>
<feColorMatrix in="SourceAlpha" type="matrix" values="0 0 0 0 0 0 0 0 0 0 0 0 0 0 0 0 0 0 127 0" result="hardAlpha"/>
<feOffset dy="4"/>
<feGaussianBlur stdDeviation="2"/>
<feComposite in2="hardAlpha" operator="out"/>
<feColorMatrix type="matrix" values="0 0 0 0 0 0 0 0 0 0 0 0 0 0 0 0 0 0 0.25 0"/>
<feBlend mode="normal" in2="effect1_backgroundBlur_564_87" result="effect2_dropShadow_564_87"/>
<feBlend mode="normal" in="SourceGraphic" in2="effect2_dropShadow_564_87" result="shape"/>
<feColorMatrix in="SourceAlpha" type="matrix" values="0 0 0 0 0 0 0 0 0 0 0 0 0 0 0 0 0 0 127 0" result="hardAlpha"/>
<feOffset dy="4"/>
<feGaussianBlur stdDeviation="2"/>
<feComposite in2="hardAlpha" operator="arithmetic" k2="-1" k3="1"/>
<feColorMatrix type="matrix" values="0 0 0 0 0 0 0 0 0 0 0 0 0 0 0 0 0 0 0.6 0"/>
<feBlend mode="normal" in2="shape" result="effect3_innerShadow_564_87"/>
</filter>
<filter id="filter1_i_564_87" x="85.21" y="15.9399" width="181.66" height="72.5601" filterUnits="userSpaceOnUse" color-interpolation-filters="sRGB">
<feFlood flood-opacity="0" result="BackgroundImageFix"/>
<feBlend mode="normal" in="SourceGraphic" in2="BackgroundImageFix" result="shape"/>
<feColorMatrix in="SourceAlpha" type="matrix" values="0 0 0 0 0 0 0 0 0 0 0 0 0 0 0 0 0 0 127 0" result="hardAlpha"/>
<feOffset dy="-2"/>
<feGaussianBlur stdDeviation="3.35"/>
<feComposite in2="hardAlpha" operator="arithmetic" k2="-1" k3="1"/>
<feColorMatrix type="matrix" values="0 0 0 0 0.407843 0 0 0 0 0.427451 0 0 0 0 0.462745 0 0 0 1 0"/>
<feBlend mode="normal" in2="shape" result="effect1_innerShadow_564_87"/>
</filter>
</defs>
</svg>
